<mxfile host="app.diagrams.net" modified="2023-08-21T03:41:26.622Z" agent="Mozilla/5.0 (Windows NT 10.0; Win64; x64) AppleWebKit/537.36 (KHTML, like Gecko) Chrome/115.0.0.0 Safari/537.36 Edg/115.0.1901.203" etag="sLmo20z8rUEE_DY0Vecp" version="21.6.8" type="github">
  <diagram name="第 1 页" id="KKbtT-cPkUZMmOB6GH9q">
    <mxGraphModel dx="698" dy="382" grid="1" gridSize="10" guides="1" tooltips="1" connect="1" arrows="1" fold="1" page="1" pageScale="1" pageWidth="827" pageHeight="1169" math="0" shadow="0">
      <root>
        <mxCell id="0" />
        <mxCell id="1" parent="0" />
        <mxCell id="fDTyaXmU1zEKKNqN4uWs-3" value="" style="edgeStyle=orthogonalEdgeStyle;rounded=0;orthogonalLoop=1;jettySize=auto;html=1;labelBackgroundColor=none;fontFamily=Helvetica;fontColor=#000000;" edge="1" parent="1" source="fDTyaXmU1zEKKNqN4uWs-1" target="fDTyaXmU1zEKKNqN4uWs-2">
          <mxGeometry relative="1" as="geometry" />
        </mxCell>
        <mxCell id="fDTyaXmU1zEKKNqN4uWs-1" value="HotReplyV2" style="rounded=1;whiteSpace=wrap;html=1;labelBackgroundColor=none;fontFamily=Helvetica;fontColor=#000000;" vertex="1" parent="1">
          <mxGeometry x="220" y="50" width="120" height="30" as="geometry" />
        </mxCell>
        <mxCell id="fDTyaXmU1zEKKNqN4uWs-5" value="" style="edgeStyle=orthogonalEdgeStyle;rounded=0;orthogonalLoop=1;jettySize=auto;html=1;labelBackgroundColor=none;fontFamily=Helvetica;fontColor=#000000;" edge="1" parent="1" source="fDTyaXmU1zEKKNqN4uWs-2" target="fDTyaXmU1zEKKNqN4uWs-4">
          <mxGeometry relative="1" as="geometry" />
        </mxCell>
        <mxCell id="fDTyaXmU1zEKKNqN4uWs-2" value="&lt;div style=&quot;font-size: 12px;&quot;&gt;initLogger&lt;/div&gt;" style="rounded=1;whiteSpace=wrap;html=1;fontSize=12;labelBackgroundColor=none;fontFamily=Helvetica;fontColor=#000000;" vertex="1" parent="1">
          <mxGeometry x="220" y="110" width="120" height="30" as="geometry" />
        </mxCell>
        <mxCell id="fDTyaXmU1zEKKNqN4uWs-4" value="&lt;div style=&quot;font-size: 12px;&quot;&gt;&lt;font style=&quot;font-size: 12px;&quot;&gt;useRecommendProtocol ?&lt;/font&gt;&lt;/div&gt;" style="rhombus;whiteSpace=wrap;html=1;fontSize=12;labelBackgroundColor=none;fontFamily=Helvetica;fontColor=#000000;" vertex="1" parent="1">
          <mxGeometry x="170" y="180" width="220" height="40" as="geometry" />
        </mxCell>
        <mxCell id="fDTyaXmU1zEKKNqN4uWs-6" value="" style="endArrow=none;html=1;rounded=0;entryX=0.5;entryY=1;entryDx=0;entryDy=0;labelBackgroundColor=none;fontFamily=Helvetica;fontColor=#000000;" edge="1" parent="1" target="fDTyaXmU1zEKKNqN4uWs-4">
          <mxGeometry width="50" height="50" relative="1" as="geometry">
            <mxPoint x="280" y="260" as="sourcePoint" />
            <mxPoint x="290" y="270" as="targetPoint" />
          </mxGeometry>
        </mxCell>
        <mxCell id="fDTyaXmU1zEKKNqN4uWs-9" value="&lt;div style=&quot;font-size: 9.8pt;&quot;&gt;recommendProtocol&lt;/div&gt;" style="rounded=0;whiteSpace=wrap;html=1;labelBackgroundColor=none;fontFamily=Helvetica;fontColor=#000000;" vertex="1" parent="1">
          <mxGeometry x="310" y="310" width="140" height="130" as="geometry" />
        </mxCell>
        <mxCell id="fDTyaXmU1zEKKNqN4uWs-10" value="" style="endArrow=none;html=1;rounded=0;labelBackgroundColor=none;fontFamily=Helvetica;fontColor=#000000;" edge="1" parent="1">
          <mxGeometry width="50" height="50" relative="1" as="geometry">
            <mxPoint x="280" y="260" as="sourcePoint" />
            <mxPoint x="380" y="280" as="targetPoint" />
          </mxGeometry>
        </mxCell>
        <mxCell id="fDTyaXmU1zEKKNqN4uWs-26" value="YES&lt;br&gt;&amp;nbsp;" style="edgeLabel;html=1;align=center;verticalAlign=middle;resizable=0;points=[];labelBackgroundColor=none;fontFamily=Helvetica;fontColor=#000000;" vertex="1" connectable="0" parent="fDTyaXmU1zEKKNqN4uWs-10">
          <mxGeometry x="-0.085" y="-1" relative="1" as="geometry">
            <mxPoint as="offset" />
          </mxGeometry>
        </mxCell>
        <mxCell id="fDTyaXmU1zEKKNqN4uWs-11" value="" style="endArrow=classic;html=1;rounded=0;entryX=0.5;entryY=0;entryDx=0;entryDy=0;labelBackgroundColor=none;fontFamily=Helvetica;fontColor=#000000;" edge="1" parent="1" target="fDTyaXmU1zEKKNqN4uWs-9">
          <mxGeometry width="50" height="50" relative="1" as="geometry">
            <mxPoint x="380" y="280" as="sourcePoint" />
            <mxPoint x="340" y="250" as="targetPoint" />
          </mxGeometry>
        </mxCell>
        <mxCell id="fDTyaXmU1zEKKNqN4uWs-12" value="&lt;div style=&quot;&quot;&gt;&lt;font style=&quot;font-size: 12px;&quot;&gt;fillAiResp&lt;/font&gt;&lt;/div&gt;" style="rounded=1;whiteSpace=wrap;html=1;labelBackgroundColor=none;fontFamily=Helvetica;fontColor=#000000;" vertex="1" parent="1">
          <mxGeometry x="380" y="390" width="70" height="20" as="geometry" />
        </mxCell>
        <mxCell id="fDTyaXmU1zEKKNqN4uWs-14" value="&lt;div style=&quot;&quot;&gt;&lt;font style=&quot;font-size: 11px;&quot;&gt;fixContextFeature&lt;/font&gt;&lt;/div&gt;" style="rounded=1;whiteSpace=wrap;html=1;labelBackgroundColor=none;fontFamily=Helvetica;fillColor=#f8cecc;strokeColor=#b85450;" vertex="1" parent="1">
          <mxGeometry x="340" y="410" width="110" height="20" as="geometry" />
        </mxCell>
        <mxCell id="fDTyaXmU1zEKKNqN4uWs-19" value="" style="group;labelBackgroundColor=none;fontFamily=Helvetica;fontColor=#000000;dashed=1;dashPattern=1 4;" vertex="1" connectable="0" parent="1">
          <mxGeometry x="560" y="42" width="120" height="460" as="geometry" />
        </mxCell>
        <mxCell id="fDTyaXmU1zEKKNqN4uWs-16" value="" style="rounded=0;whiteSpace=wrap;html=1;labelBackgroundColor=none;fontFamily=Helvetica;fontColor=#000000;" vertex="1" parent="fDTyaXmU1zEKKNqN4uWs-19">
          <mxGeometry width="120" height="460" as="geometry" />
        </mxCell>
        <mxCell id="fDTyaXmU1zEKKNqN4uWs-17" value="" style="endArrow=none;html=1;rounded=0;exitX=0.004;exitY=0.075;exitDx=0;exitDy=0;exitPerimeter=0;entryX=0.997;entryY=0.074;entryDx=0;entryDy=0;entryPerimeter=0;labelBackgroundColor=none;fontFamily=Helvetica;fontColor=#000000;" edge="1" parent="fDTyaXmU1zEKKNqN4uWs-19" source="fDTyaXmU1zEKKNqN4uWs-16" target="fDTyaXmU1zEKKNqN4uWs-16">
          <mxGeometry width="50" height="50" relative="1" as="geometry">
            <mxPoint x="40" y="70" as="sourcePoint" />
            <mxPoint x="90" y="20" as="targetPoint" />
          </mxGeometry>
        </mxCell>
        <mxCell id="fDTyaXmU1zEKKNqN4uWs-18" value="logger" style="text;html=1;align=center;verticalAlign=middle;resizable=0;points=[];autosize=1;strokeColor=none;fillColor=none;labelBackgroundColor=none;fontFamily=Helvetica;fontColor=#000000;" vertex="1" parent="fDTyaXmU1zEKKNqN4uWs-19">
          <mxGeometry x="30" width="60" height="30" as="geometry" />
        </mxCell>
        <mxCell id="fDTyaXmU1zEKKNqN4uWs-20" value="&lt;font style=&quot;font-size: 12px;&quot;&gt;初始化填充的字段&lt;/font&gt;" style="rounded=1;whiteSpace=wrap;html=1;labelBackgroundColor=none;fontFamily=Helvetica;fontColor=#000000;" vertex="1" parent="fDTyaXmU1zEKKNqN4uWs-19">
          <mxGeometry x="10" y="40" width="100" height="170" as="geometry" />
        </mxCell>
        <mxCell id="fDTyaXmU1zEKKNqN4uWs-41" value="" style="rounded=1;whiteSpace=wrap;html=1;labelBackgroundColor=none;fontFamily=Helvetica;fontColor=#000000;" vertex="1" parent="fDTyaXmU1zEKKNqN4uWs-19">
          <mxGeometry x="10" y="368" width="100" height="20" as="geometry" />
        </mxCell>
        <mxCell id="fDTyaXmU1zEKKNqN4uWs-21" value="&lt;div style=&quot;font-size: 9.8pt;&quot;&gt;aiResp&lt;/div&gt;&lt;div style=&quot;font-size: 9.8pt;&quot;&gt;&lt;div style=&quot;font-size: 9.8pt;&quot;&gt;ReturnCode&lt;/div&gt;&lt;div style=&quot;font-size: 9.8pt;&quot;&gt;&lt;div style=&quot;font-size: 9.8pt;&quot;&gt;Trackid&lt;/div&gt;&lt;div style=&quot;font-size: 9.8pt;&quot;&gt;&lt;br&gt;&lt;/div&gt;&lt;div style=&quot;font-size: 9.8pt;&quot;&gt;&lt;br&gt;&lt;/div&gt;&lt;div style=&quot;font-size: 9.8pt;&quot;&gt;&lt;div style=&quot;font-size: 9.8pt;&quot;&gt;&lt;br&gt;&lt;/div&gt;&lt;/div&gt;&lt;/div&gt;&lt;/div&gt;" style="rounded=1;whiteSpace=wrap;html=1;labelBackgroundColor=none;fontFamily=Helvetica;fontColor=#000000;" vertex="1" parent="fDTyaXmU1zEKKNqN4uWs-19">
          <mxGeometry x="10" y="275" width="100" height="130" as="geometry" />
        </mxCell>
        <mxCell id="fDTyaXmU1zEKKNqN4uWs-39" value="ContextFeature" style="rounded=1;whiteSpace=wrap;html=1;labelBackgroundColor=none;fontFamily=Helvetica;fontColor=#000000;dashed=1;strokeColor=#9999FF;" vertex="1" parent="fDTyaXmU1zEKKNqN4uWs-19">
          <mxGeometry x="20" y="368" width="80" height="20" as="geometry" />
        </mxCell>
        <mxCell id="fDTyaXmU1zEKKNqN4uWs-22" value="" style="endArrow=none;html=1;rounded=0;labelBackgroundColor=none;fontFamily=Helvetica;fontColor=#000000;" edge="1" parent="1">
          <mxGeometry width="50" height="50" relative="1" as="geometry">
            <mxPoint x="280" y="260" as="sourcePoint" />
            <mxPoint x="180" y="280" as="targetPoint" />
          </mxGeometry>
        </mxCell>
        <mxCell id="fDTyaXmU1zEKKNqN4uWs-27" value="NO&lt;br&gt;&amp;nbsp;" style="edgeLabel;html=1;align=center;verticalAlign=middle;resizable=0;points=[];labelBackgroundColor=none;fontFamily=Helvetica;fontColor=#000000;" vertex="1" connectable="0" parent="fDTyaXmU1zEKKNqN4uWs-22">
          <mxGeometry x="0.3319" y="1" relative="1" as="geometry">
            <mxPoint as="offset" />
          </mxGeometry>
        </mxCell>
        <mxCell id="fDTyaXmU1zEKKNqN4uWs-23" value="&lt;div style=&quot;font-size: 9.8pt;&quot;&gt;PageNumHotReply&lt;/div&gt;" style="rounded=0;whiteSpace=wrap;html=1;labelBackgroundColor=none;fontFamily=Helvetica;fontColor=#000000;" vertex="1" parent="1">
          <mxGeometry x="110" y="310" width="140" height="130" as="geometry" />
        </mxCell>
        <mxCell id="fDTyaXmU1zEKKNqN4uWs-24" value="" style="endArrow=classic;html=1;rounded=0;entryX=0.5;entryY=0;entryDx=0;entryDy=0;labelBackgroundColor=none;fontFamily=Helvetica;fontColor=#000000;" edge="1" parent="1" target="fDTyaXmU1zEKKNqN4uWs-23">
          <mxGeometry width="50" height="50" relative="1" as="geometry">
            <mxPoint x="180" y="280" as="sourcePoint" />
            <mxPoint x="160" y="300" as="targetPoint" />
          </mxGeometry>
        </mxCell>
        <mxCell id="fDTyaXmU1zEKKNqN4uWs-28" value="" style="endArrow=none;html=1;rounded=0;exitX=0.5;exitY=1;exitDx=0;exitDy=0;labelBackgroundColor=none;fontFamily=Helvetica;fontColor=#000000;" edge="1" parent="1" source="fDTyaXmU1zEKKNqN4uWs-23">
          <mxGeometry width="50" height="50" relative="1" as="geometry">
            <mxPoint x="300" y="470" as="sourcePoint" />
            <mxPoint x="180" y="460" as="targetPoint" />
          </mxGeometry>
        </mxCell>
        <mxCell id="fDTyaXmU1zEKKNqN4uWs-29" value="" style="endArrow=none;html=1;rounded=0;exitX=0.5;exitY=1;exitDx=0;exitDy=0;labelBackgroundColor=none;fontFamily=Helvetica;fontColor=#000000;" edge="1" parent="1" source="fDTyaXmU1zEKKNqN4uWs-9">
          <mxGeometry width="50" height="50" relative="1" as="geometry">
            <mxPoint x="370" y="480" as="sourcePoint" />
            <mxPoint x="380" y="460" as="targetPoint" />
          </mxGeometry>
        </mxCell>
        <mxCell id="fDTyaXmU1zEKKNqN4uWs-31" value="" style="endArrow=none;html=1;rounded=0;labelBackgroundColor=none;fontFamily=Helvetica;fontColor=#000000;" edge="1" parent="1">
          <mxGeometry width="50" height="50" relative="1" as="geometry">
            <mxPoint x="180" y="460" as="sourcePoint" />
            <mxPoint x="280" y="480" as="targetPoint" />
          </mxGeometry>
        </mxCell>
        <mxCell id="fDTyaXmU1zEKKNqN4uWs-32" value="" style="endArrow=none;html=1;rounded=0;labelBackgroundColor=none;fontFamily=Helvetica;fontColor=#000000;" edge="1" parent="1">
          <mxGeometry width="50" height="50" relative="1" as="geometry">
            <mxPoint x="280" y="480" as="sourcePoint" />
            <mxPoint x="380" y="460" as="targetPoint" />
          </mxGeometry>
        </mxCell>
        <mxCell id="fDTyaXmU1zEKKNqN4uWs-33" value="" style="endArrow=classic;html=1;rounded=0;entryX=0.5;entryY=0;entryDx=0;entryDy=0;labelBackgroundColor=none;fontFamily=Helvetica;fontColor=#000000;" edge="1" parent="1" target="fDTyaXmU1zEKKNqN4uWs-35">
          <mxGeometry width="50" height="50" relative="1" as="geometry">
            <mxPoint x="280" y="480" as="sourcePoint" />
            <mxPoint x="280" y="510" as="targetPoint" />
          </mxGeometry>
        </mxCell>
        <mxCell id="fDTyaXmU1zEKKNqN4uWs-34" value="out" style="text;html=1;align=center;verticalAlign=middle;resizable=0;points=[];autosize=1;strokeColor=none;fillColor=none;labelBackgroundColor=none;fontFamily=Helvetica;fontColor=#000000;" vertex="1" parent="1">
          <mxGeometry x="270" y="480" width="40" height="30" as="geometry" />
        </mxCell>
        <mxCell id="fDTyaXmU1zEKKNqN4uWs-35" value="" style="rounded=0;whiteSpace=wrap;html=1;labelBackgroundColor=none;fontFamily=Helvetica;fontColor=#000000;" vertex="1" parent="1">
          <mxGeometry x="220" y="520" width="120" height="40" as="geometry" />
        </mxCell>
        <mxCell id="fDTyaXmU1zEKKNqN4uWs-36" value="" style="endArrow=classic;html=1;rounded=0;exitX=1;exitY=0.5;exitDx=0;exitDy=0;entryX=0;entryY=0.25;entryDx=0;entryDy=0;labelBackgroundColor=none;fontFamily=Helvetica;fontColor=#000000;" edge="1" parent="1" source="fDTyaXmU1zEKKNqN4uWs-2" target="fDTyaXmU1zEKKNqN4uWs-20">
          <mxGeometry width="50" height="50" relative="1" as="geometry">
            <mxPoint x="390" y="130" as="sourcePoint" />
            <mxPoint x="440" y="80" as="targetPoint" />
          </mxGeometry>
        </mxCell>
        <mxCell id="fDTyaXmU1zEKKNqN4uWs-37" value="" style="endArrow=classic;html=1;rounded=0;exitX=1;exitY=0.5;exitDx=0;exitDy=0;entryX=0.008;entryY=0.639;entryDx=0;entryDy=0;entryPerimeter=0;labelBackgroundColor=none;fontFamily=Helvetica;fontColor=#000000;" edge="1" parent="1" source="fDTyaXmU1zEKKNqN4uWs-12" target="fDTyaXmU1zEKKNqN4uWs-21">
          <mxGeometry width="50" height="50" relative="1" as="geometry">
            <mxPoint x="410" y="370" as="sourcePoint" />
            <mxPoint x="460" y="320" as="targetPoint" />
          </mxGeometry>
        </mxCell>
        <mxCell id="fDTyaXmU1zEKKNqN4uWs-38" value="" style="endArrow=classic;html=1;rounded=0;exitX=1;exitY=0.5;exitDx=0;exitDy=0;entryX=0;entryY=0.5;entryDx=0;entryDy=0;labelBackgroundColor=none;fontFamily=Helvetica;fontColor=#000000;strokeColor=#FF6666;" edge="1" parent="1" source="fDTyaXmU1zEKKNqN4uWs-14" target="fDTyaXmU1zEKKNqN4uWs-39">
          <mxGeometry width="50" height="50" relative="1" as="geometry">
            <mxPoint x="440" y="390" as="sourcePoint" />
            <mxPoint x="490" y="340" as="targetPoint" />
          </mxGeometry>
        </mxCell>
      </root>
    </mxGraphModel>
  </diagram>
</mxfile>
